<svg width="122.000000" height="122.000000" viewBox="0 0 122 122" fill="none" xmlns="http://www.w3.org/2000/svg" xmlns:xlink="http://www.w3.org/1999/xlink">
	<desc>
			Created with Pixso.
	</desc>
	<defs>
		<clipPath id="clip30_5579">
			<rect id="svg" width="122.000000" height="122.000000" fill="white" fill-opacity="0"/>
		</clipPath>
		<linearGradient id="paint_linear_30_5583_0" x1="61.000000" y1="122.000000" x2="61.000000" y2="0.000000" gradientUnits="userSpaceOnUse">
			<stop stop-color="#00A77E"/>
			<stop offset="1.000000" stop-color="#8ED8F8"/>
		</linearGradient>
		<linearGradient id="paint_linear_30_5584_0" x1="61.000000" y1="93.167969" x2="61.000000" y2="28.832031" gradientUnits="userSpaceOnUse">
			<stop stop-color="#ADDCFF"/>
			<stop offset="0.503000" stop-color="#EAF6FF"/>
			<stop offset="1.000000" stop-color="#EAF6FF"/>
		</linearGradient>
	</defs>
	<g clip-path="url(#clip30_5579)">
		<path id="path" d="M118.42 50.27L109.82 50.27C108.53 44.47 106.29 39.07 103.09 34.06L109.02 28.14C110.41 26.74 110.41 24.48 109.02 23.08L98.91 12.98C97.51 11.58 95.25 11.58 93.85 12.98L87.93 18.9C82.92 15.7 77.52 13.46 71.72 12.17L71.72 3.57C71.72 1.6 70.12 0 68.14 0L53.85 0C51.87 0 50.27 1.6 50.27 3.57L50.27 12.17C44.47 13.46 39.07 15.7 34.06 18.9L28.14 12.98C26.74 11.58 24.48 11.58 23.08 12.98L12.98 23.08C11.58 24.48 11.58 26.74 12.98 28.14L18.9 34.06C15.7 39.07 13.46 44.47 12.17 50.27L3.57 50.27C1.6 50.27 0 51.87 0 53.85L0 68.14C0 70.12 1.6 71.72 3.57 71.72L12.17 71.72C13.46 77.52 15.7 82.92 18.9 87.93L12.98 93.85C11.58 95.25 11.58 97.51 12.98 98.9L23.08 109.02C24.48 110.41 26.74 110.41 28.14 109.02L34.06 103.09C39.07 106.29 44.47 108.53 50.27 109.82L50.27 118.42C50.27 120.4 51.87 122 53.85 122L68.14 122C70.12 122 71.72 120.4 71.72 118.42L71.72 109.82C77.52 108.53 82.92 106.29 87.93 103.09L93.85 109.02C95.25 110.41 97.51 110.41 98.91 109.02L109.01 98.91C110.41 97.51 110.41 95.25 109.01 93.85L103.09 87.93C106.29 82.92 108.53 77.52 109.82 71.72L118.42 71.72C120.4 71.72 122 70.12 122 68.14L122 53.85C122 51.87 120.4 50.27 118.42 50.27Z" fill="url(#paint_linear_30_5583_0)" fill-opacity="1.000000" fill-rule="nonzero"/>
		<path id="path" d="M61 28.83C43.26 28.83 28.83 43.26 28.83 61C28.83 78.73 43.26 93.16 61 93.16C78.73 93.16 93.16 78.73 93.16 61C93.16 43.26 78.73 28.83 61 28.83ZM64.57 75.29C64.57 77.27 62.97 78.87 61 78.87C59.02 78.87 57.42 77.27 57.42 75.29L57.42 61C57.42 59.02 59.02 57.42 61 57.42C62.97 57.42 64.57 59.02 64.57 61L64.57 75.29ZM61 50.27C59.02 50.27 57.42 48.67 57.42 46.7C57.42 44.72 59.02 43.12 61 43.12C62.97 43.12 64.57 44.72 64.57 46.7C64.57 48.67 62.97 50.27 61 50.27Z" fill="url(#paint_linear_30_5584_0)" fill-opacity="1.000000" fill-rule="nonzero"/>
	</g>
</svg>
