<svg width="109.000000" height="109.000000" viewBox="0 0 109 109" fill="none" xmlns="http://www.w3.org/2000/svg" xmlns:xlink="http://www.w3.org/1999/xlink">
	<desc>
			Created with Pixso.
	</desc>
	<defs>
		<clipPath id="clip30_5390">
			<rect id="svg" width="109.000000" height="109.000000" transform="translate(-0.666504 0.000000)" fill="white" fill-opacity="0"/>
		</clipPath>
		<linearGradient id="paint_linear_30_5394_0" x1="53.833794" y1="96.013672" x2="53.833794" y2="-0.000015" gradientUnits="userSpaceOnUse">
			<stop stop-color="#FA9C69"/>
			<stop offset="1.000000" stop-color="#FFDE00"/>
		</linearGradient>
		<linearGradient id="paint_linear_30_5395_0" x1="53.833706" y1="109.001015" x2="53.833706" y2="19.373192" gradientUnits="userSpaceOnUse">
			<stop stop-color="#FFE59A"/>
			<stop offset="1.000000" stop-color="#FFFFD5"/>
		</linearGradient>
	</defs>
	<g clip-path="url(#clip30_5390)">
		<path id="path" d="M96.18 37.39C94.56 35.8 93.03 34.29 92.18 32.22C91.33 30.15 91.34 28.01 91.35 25.74C91.38 22.08 91.4 17.94 87.7 14.24C84 10.53 79.82 10.58 76.2 10.58C73.96 10.61 71.78 10.61 69.71 9.75C67.65 8.9 66.14 7.37 64.54 5.76C61.97 3.15 59.06 0 53.83 0C48.6 0 45.68 3.15 43.11 5.76C41.52 7.37 40.01 8.9 37.94 9.75C35.88 10.6 33.74 10.59 31.46 10.58C27.73 10.58 23.65 10.54 19.96 14.24C16.26 17.94 16.28 22.08 16.31 25.74C16.32 28.01 16.33 30.15 15.48 32.22C14.62 34.29 13.09 35.8 11.48 37.39C8.88 39.96 5.93 42.87 5.93 48.11C5.93 53.34 8.88 56.25 11.48 58.82C13.09 60.42 14.62 61.93 15.48 63.99C16.33 66.06 16.32 68.21 16.31 70.48C16.28 73.99 16.34 77.95 19.62 81.54L17.69 89.29L29.99 93.08L40.35 87.91C41.19 88.57 42.07 89.4 43.11 90.46C45.68 93.06 48.6 96.01 53.83 96.01C59.06 96.01 61.97 93.06 64.54 90.46C65.59 89.4 66.47 88.57 67.31 87.91L78.03 92.97L85.43 88.72L88.03 81.54C91.32 77.95 91.37 73.99 91.35 70.48C91.34 68.21 91.32 66.06 92.18 63.99C93.03 61.93 94.56 60.42 96.18 58.82C98.78 56.25 101.73 53.34 101.73 48.11C101.73 42.87 98.78 39.96 96.18 37.39Z" fill="url(#paint_linear_30_5394_0)" fill-opacity="1.000000" fill-rule="nonzero"/>
		<path id="path" d="M82.57 48.11C82.57 32.26 69.68 19.37 53.83 19.37C37.98 19.37 25.09 32.26 25.09 48.11C25.09 63.96 37.98 76.85 53.83 76.85C69.68 76.85 82.57 63.96 82.57 48.11ZM68.58 46.01L64.6 51.61L64.53 58.48C64.53 58.98 64.41 59.46 64.17 59.91C63.94 60.36 63.62 60.73 63.22 61.03C62.35 61.65 61.29 61.78 60.38 61.49L53.83 59.44L47.27 61.49C46.31 61.8 45.26 61.62 44.44 61.03C44.03 60.73 43.71 60.36 43.48 59.91C43.25 59.46 43.13 58.98 43.13 58.48L43.06 51.61L39.08 46.01C38.78 45.6 38.6 45.14 38.52 44.64C38.45 44.14 38.49 43.66 38.64 43.17C38.8 42.69 39.05 42.27 39.41 41.91C39.76 41.55 40.18 41.29 40.66 41.13L47.17 38.94L51.26 33.43C52.48 31.81 55.18 31.81 56.39 33.43L60.48 38.94L66.99 41.13C67.23 41.21 67.45 41.32 67.67 41.45C67.88 41.58 68.07 41.74 68.25 41.91C68.42 42.09 68.57 42.28 68.7 42.5C68.83 42.71 68.94 42.93 69.01 43.17C69.09 43.41 69.14 43.65 69.16 43.9C69.18 44.15 69.17 44.4 69.13 44.64C69.1 44.89 69.03 45.13 68.94 45.36C68.84 45.59 68.72 45.81 68.58 46.01ZM31.46 85.63C26.39 85.6 23.07 85.31 19.62 81.54L6.86 94.3C5.95 95.21 5.68 96.58 6.17 97.78C6.66 98.97 7.83 99.75 9.12 99.75L14.96 99.75L14.96 105.8C14.96 106.12 15.01 106.43 15.1 106.73C15.19 107.03 15.32 107.31 15.5 107.58C15.67 107.84 15.88 108.07 16.13 108.27C16.37 108.47 16.64 108.63 16.93 108.75C18.09 109.24 19.48 108.99 20.41 108.06L40.35 87.91C37.95 86.03 35.9 85.58 31.46 85.63ZM100.79 94.3L88.03 81.54C84.6 85.29 81.27 85.67 76.2 85.63C71.75 85.57 69.69 86.04 67.31 87.91L87.25 108.06C88.17 108.99 89.56 109.24 90.73 108.75C91.02 108.63 91.29 108.47 91.53 108.27C91.77 108.07 91.98 107.84 92.16 107.58C92.33 107.31 92.47 107.03 92.56 106.73C92.65 106.43 92.7 106.12 92.7 105.8L92.7 99.75L98.53 99.75C99.83 99.75 100.99 98.97 101.49 97.78C101.98 96.58 101.7 95.21 100.79 94.3Z" fill="url(#paint_linear_30_5395_0)" fill-opacity="1.000000" fill-rule="nonzero"/>
	</g>
</svg>
