<svg width="108.000000" height="108.000000" viewBox="0 0 108 108" fill="none" xmlns="http://www.w3.org/2000/svg" xmlns:xlink="http://www.w3.org/1999/xlink">
	<desc>
			Created with Pixso.
	</desc>
	<defs>
		<clipPath id="clip30_5382">
			<rect id="svg" width="108.000000" height="108.000000" fill="white" fill-opacity="0"/>
		</clipPath>
		<linearGradient id="paint_linear_30_5386_0" x1="54.000000" y1="90.914062" x2="54.000000" y2="6.539062" gradientUnits="userSpaceOnUse">
			<stop stop-color="#ADDCFF"/>
			<stop offset="0.503000" stop-color="#C5E6FF"/>
			<stop offset="1.000000" stop-color="#9DCDF0"/>
		</linearGradient>
		<linearGradient id="paint_linear_30_5387_0" x1="54.000000" y1="101.460938" x2="54.000000" y2="16.031250" gradientUnits="userSpaceOnUse">
			<stop stop-color="#3C3FCF"/>
			<stop offset="1.000000" stop-color="#3DA3C4"/>
		</linearGradient>
	</defs>
	<g clip-path="url(#clip30_5382)">
		<path id="path" d="M98.29 80.36L9.7 80.36C7.95 80.36 6.53 78.95 6.53 77.2L6.53 18.14C6.53 11.74 11.74 6.53 18.14 6.53L89.85 6.53C96.25 6.53 101.46 11.74 101.46 18.14L101.46 77.2C101.46 78.95 100.04 80.36 98.29 80.36ZM95.13 87.75C95.13 86 93.71 84.58 91.96 84.58L85.64 84.58C83.89 84.58 82.47 86 82.47 87.75C82.47 89.49 83.89 90.91 85.64 90.91L91.96 90.91C93.71 90.91 95.13 89.49 95.13 87.75Z" fill="url(#paint_linear_30_5386_0)" fill-opacity="1.000000" fill-rule="nonzero"/>
		<path id="path" d="M104.83 74.03L68.76 74.03C68.23 74.03 67.73 74.16 67.27 74.41C66.8 74.66 66.42 75 66.13 75.44L62.85 80.36L45.14 80.36L41.86 75.44C41.57 75 41.19 74.66 40.72 74.41C40.26 74.16 39.76 74.03 39.23 74.03L3.16 74.03C1.41 74.03 0 75.45 0 77.2L0 87.75C0 95.31 6.15 101.46 13.71 101.46L94.28 101.46C101.84 101.46 108 95.31 108 87.75L108 77.2C108 75.45 106.58 74.03 104.83 74.03ZM91.96 90.91L85.64 90.91C83.89 90.91 82.47 89.49 82.47 87.75C82.47 86 83.89 84.58 85.64 84.58L91.96 84.58C93.71 84.58 95.13 86 95.13 87.75C95.13 89.49 93.71 90.91 91.96 90.91ZM54 68.76C53.66 68.76 53.32 68.71 52.99 68.6C51.46 68.09 49.98 67.46 48.55 66.72C47.12 65.98 45.75 65.13 44.45 64.18C43.15 63.23 41.93 62.17 40.8 61.03C39.66 59.88 38.62 58.66 37.68 57.35C36.73 56.04 35.9 54.66 35.17 53.22C34.44 51.78 33.83 50.3 33.34 48.76C32.84 47.23 32.47 45.66 32.22 44.07C31.97 42.47 31.85 40.87 31.85 39.26L31.85 27.63C31.85 25.88 33.26 24.46 35.01 24.46L37.12 24.46C42.73 24.46 48.1 21.78 51.46 17.29C51.61 17.1 51.78 16.92 51.97 16.76C52.16 16.6 52.36 16.47 52.58 16.36C52.8 16.25 53.03 16.17 53.27 16.11C53.51 16.05 53.75 16.03 54 16.03C54.24 16.03 54.48 16.05 54.72 16.11C54.96 16.17 55.19 16.25 55.41 16.36C55.63 16.47 55.83 16.6 56.02 16.76C56.21 16.92 56.38 17.1 56.53 17.29C59.89 21.78 65.26 24.46 70.87 24.46L72.98 24.46C74.73 24.46 76.14 25.88 76.14 27.63L76.14 39.26C76.14 52.59 67.64 64.38 55 68.6C54.67 68.71 54.33 68.76 54 68.76ZM38.17 30.77L38.17 39.26C38.17 40.5 38.27 41.73 38.45 42.95C38.64 44.18 38.91 45.38 39.28 46.56C39.65 47.75 40.1 48.89 40.64 50.01C41.18 51.12 41.8 52.19 42.51 53.21C43.21 54.23 43.98 55.19 44.83 56.1C45.68 57 46.59 57.83 47.56 58.6C48.54 59.36 49.56 60.05 50.64 60.66C51.72 61.27 52.84 61.8 54 62.24C55.15 61.8 56.27 61.27 57.35 60.66C58.43 60.05 59.45 59.36 60.43 58.6C61.4 57.83 62.31 57 63.16 56.1C64.01 55.19 64.78 54.23 65.48 53.21C66.19 52.19 66.81 51.12 67.35 50.01C67.89 48.89 68.34 47.75 68.71 46.56C69.08 45.38 69.35 44.18 69.54 42.95C69.72 41.73 69.82 40.5 69.82 39.26L69.82 30.77C63.89 30.51 58.23 28.05 54 23.96C49.76 28.05 44.1 30.51 38.17 30.77ZM51.28 50.08C50.44 50.08 49.64 49.74 49.05 49.15L45.43 45.53C44.19 44.3 44.19 42.3 45.43 41.06C46.67 39.82 48.67 39.82 49.9 41.06L51.28 42.44L58.09 35.64C59.32 34.4 61.33 34.4 62.56 35.64C63.8 36.87 63.8 38.87 62.56 40.11L53.52 49.15C52.9 49.77 52.16 50.08 51.28 50.08Z" fill="url(#paint_linear_30_5387_0)" fill-opacity="1.000000" fill-rule="nonzero"/>
	</g>
</svg>
