<svg width="108.000000" height="108.000000" viewBox="0 0 108 108" fill="none" xmlns="http://www.w3.org/2000/svg" xmlns:xlink="http://www.w3.org/1999/xlink">
	<desc>
			Created with Pixso.
	</desc>
	<defs>
		<clipPath id="clip30_5398">
			<rect id="svg" width="108.000000" height="108.000000" transform="translate(-0.333252 0.000000)" fill="white" fill-opacity="0"/>
		</clipPath>
		<linearGradient id="paint_linear_30_5402_0" x1="53.455822" y1="107.578003" x2="53.455822" y2="9.492073" gradientUnits="userSpaceOnUse">
			<stop stop-color="#00A77E"/>
			<stop offset="1.000000" stop-color="#9FF0F7"/>
		</linearGradient>
		<linearGradient id="paint_linear_30_5403_0" x1="53.455887" y1="75.937500" x2="53.455887" y2="0.000000" gradientUnits="userSpaceOnUse">
			<stop stop-color="#72CEBD"/>
			<stop offset="1.000000" stop-color="#FFF1FF"/>
		</linearGradient>
	</defs>
	<g clip-path="url(#clip30_5398)">
		<path id="path" d="M79.07 9.52L28.25 9.52L28.25 34.94L79.07 34.94L79.07 9.52ZM82.78 52.23L24.54 52.23L18.72 54L18.72 104.82C18.72 106.57 20.14 108 21.9 108L85.43 108C87.18 108 88.6 106.57 88.6 104.82L88.6 54L82.78 52.23Z" fill="url(#paint_linear_30_5402_0)" fill-opacity="1.000000" fill-rule="nonzero"/>
		<path id="path" d="M21.9 44.47L85.43 44.47C87.21 44.47 88.6 43.07 88.6 41.29L88.6 3.17C88.6 1.39 87.21 0 85.43 0L21.9 0C20.12 0 18.72 1.39 18.72 3.17L18.72 41.29C18.72 43.07 20.12 44.47 21.9 44.47ZM64.14 18.1C62.87 16.89 62.87 14.86 64.14 13.65C65.35 12.38 67.38 12.38 68.59 13.65L74.94 20.01C76.21 21.21 76.21 23.25 74.94 24.45L68.59 30.81C67.45 32.08 65.29 32.08 64.14 30.81C62.87 29.6 62.87 27.57 64.14 26.36L68.21 22.23L64.14 18.1ZM48.96 27.82L52.14 15.12C52.58 13.4 54.3 12.38 56.01 12.83C57.73 13.21 58.74 14.92 58.36 16.64L55.19 29.35C54.65 31.42 52.3 32.13 51.31 31.63C49.6 31.25 48.58 29.54 48.96 27.82ZM32.38 20.01L38.73 13.65C39.94 12.38 41.97 12.38 43.18 13.65C44.45 14.86 44.45 16.89 43.18 18.1L39.11 22.23L43.18 26.36C44.45 27.57 44.45 29.6 43.18 30.81C42.04 32.08 39.88 32.08 38.73 30.81L32.38 24.45C31.11 23.25 31.11 21.21 32.38 20.01ZM106.73 70.81L87.67 51.75C87.26 51.34 86.22 50.82 85.43 50.82L21.9 50.82C21.09 50.82 20.04 51.37 19.65 51.75L0.59 70.81C-0.65 72.05 -0.65 74.06 0.59 75.3C1.83 76.54 3.84 76.54 5.08 75.3L21.4 58.98L31.96 74.82C32.25 75.26 32.64 75.6 33.1 75.85C33.57 76.11 34.07 76.23 34.6 76.23L72.72 76.23C73.78 76.23 74.77 75.7 75.36 74.82L85.92 58.98L102.24 75.3C103.48 76.54 105.49 76.54 106.73 75.3C107.97 74.06 107.97 72.05 106.73 70.81Z" fill="url(#paint_linear_30_5403_0)" fill-opacity="1.000000" fill-rule="nonzero"/>
	</g>
</svg>
