<svg width="155.000000" height="136.000000" viewBox="0 0 155 136" fill="none" xmlns="http://www.w3.org/2000/svg" xmlns:xlink="http://www.w3.org/1999/xlink">
	<desc>
			Created with Pixso.
	</desc>
	<defs/>
	<path id="path (Border)" d="M7.5 33.41L7.5 112.71C7.5 113.99 8.5 115 9.77 115C11.05 115 12.05 113.99 12.05 112.71L12.05 33.41C12.05 31.51 12.72 29.9 14.05 28.56C14.72 27.9 15.45 27.39 16.26 27.06C17.06 26.73 17.94 26.56 18.88 26.56L97.56 26.56C98.84 26.56 99.84 25.56 99.84 24.28C99.84 23 98.84 21.99 97.56 21.99L18.88 21.99C17.31 21.99 15.85 22.27 14.51 22.83C13.17 23.39 11.94 24.22 10.83 25.34C9.72 26.45 8.88 27.68 8.33 29.02C7.77 30.37 7.5 31.83 7.5 33.41ZM146.5 58.15L146.5 112.71C146.5 113.99 145.49 115 144.22 115C142.94 115 141.94 113.99 141.94 112.71L141.94 58.15C141.94 56.87 142.94 55.86 144.22 55.86C145.49 55.86 146.5 56.87 146.5 58.15Z" fill="#67C9D3" fill-opacity="1.000000" fill-rule="evenodd"/>
	<path id="path (Border)" d="M20.5 40.86L20.5 112.71C20.5 113.99 21.49 115 22.76 115C24.03 115 25.02 113.99 25.02 112.71L25.02 40.86C25.02 40.54 25.08 40.25 25.19 39.98C25.3 39.71 25.46 39.46 25.68 39.24C25.91 39.02 26.15 38.85 26.42 38.74C26.68 38.62 26.97 38.57 27.28 38.57L97.94 38.57C99.2 38.57 100.2 37.56 100.2 36.28C100.2 35 99.2 33.99 97.94 33.99L27.28 33.99C26.35 33.99 25.48 34.16 24.68 34.5C23.88 34.83 23.15 35.33 22.48 36C21.82 36.67 21.32 37.41 20.99 38.22C20.66 39.03 20.5 39.91 20.5 40.86ZM134.5 57.57C134.5 56.29 133.5 55.28 132.23 55.28C130.96 55.28 129.97 56.29 129.97 57.57L129.97 112.71C129.97 113.99 130.96 115 132.23 115C133.5 115 134.5 113.99 134.5 112.71L134.5 57.57Z" fill="#67C9D3" fill-opacity="1.000000" fill-rule="evenodd"/>
	<path id="path (Border)" d="M13.87 136L24.01 136C25.28 136 26.28 134.97 26.28 133.67C26.28 132.37 25.28 131.35 24.01 131.35L13.87 131.35C12.52 131.35 11.26 131.11 10.1 130.62C8.94 130.13 7.88 129.39 6.92 128.41C5.96 127.42 5.24 126.34 4.76 125.16C4.28 123.97 4.04 122.68 4.04 121.29L4.04 116.96C4.04 116.64 4.09 116.34 4.2 116.07C4.31 115.79 4.48 115.54 4.7 115.32C4.92 115.09 5.17 114.92 5.44 114.81C5.7 114.69 5.99 114.64 6.31 114.64L147.68 114.64C148 114.64 148.29 114.69 148.56 114.81C148.82 114.92 149.07 115.09 149.29 115.32C149.51 115.54 149.68 115.79 149.79 116.07C149.9 116.34 149.95 116.64 149.95 116.96L149.95 121.29C149.95 122.68 149.71 123.97 149.23 125.16C148.75 126.34 148.03 127.42 147.07 128.41C145.15 130.37 142.83 131.35 140.12 131.35L34.61 131.35C33.34 131.35 32.34 132.37 32.34 133.67C32.34 134.97 33.34 136 34.61 136L140.12 136C144.09 136 147.48 134.56 150.28 131.69C153.09 128.82 154.5 125.35 154.5 121.29L154.5 116.96C154.5 115.04 153.83 113.39 152.5 112.04C151.17 110.68 149.56 110 147.68 110L6.31 110C5.37 110 4.49 110.17 3.69 110.51C2.89 110.85 2.16 111.35 1.49 112.04C0.82 112.71 0.33 113.47 -0.01 114.29C-0.34 115.11 -0.5 116 -0.5 116.96L-0.5 121.29C-0.5 123.32 -0.15 125.2 0.55 126.94C1.25 128.67 2.3 130.25 3.71 131.69C5.11 133.12 6.66 134.2 8.36 134.92C10.05 135.64 11.89 136 13.87 136Z" fill="#67C9D3" fill-opacity="1.000000" fill-rule="evenodd"/>
	<path id="path (Border)" d="M104.67 58.45L107.16 58.45C108.44 58.45 109.44 57.44 109.44 56.17C109.44 54.89 108.44 53.88 107.16 53.88L104.67 53.88C103.63 53.88 102.74 53.51 102 52.77C101.63 52.4 101.35 51.99 101.16 51.54C100.98 51.09 100.89 50.6 100.89 50.08L100.89 8.37C100.89 7.84 100.98 7.35 101.16 6.9C101.35 6.46 101.63 6.05 102 5.67C102.74 4.93 103.63 4.56 104.67 4.56L122.74 4.56C124.01 4.56 125.01 3.56 125.01 2.28C125.01 1 124.01 -0.01 122.74 -0.01L104.67 -0.01C103.52 -0.01 102.46 0.2 101.48 0.61C100.49 1.02 99.6 1.63 98.78 2.45C97.97 3.26 97.36 4.17 96.96 5.15C96.55 6.14 96.35 7.21 96.35 8.37L96.35 50.08C96.35 52.39 97.16 54.36 98.78 56C99.6 56.81 100.49 57.43 101.48 57.84C102.46 58.24 103.52 58.45 104.67 58.45ZM146.17 -0.01L133.34 -0.01C132.06 -0.01 131.07 1 131.07 2.28C131.07 3.56 132.06 4.56 133.34 4.56L146.17 4.56C147.21 4.56 148.11 4.93 148.84 5.67C149.58 6.42 149.95 7.31 149.95 8.37L149.95 50.08C149.95 51.13 149.58 52.03 148.84 52.77C148.11 53.51 147.21 53.88 146.17 53.88L116.77 53.88C115.5 53.88 114.5 54.89 114.5 56.17C114.5 57.44 115.5 58.45 116.77 58.45L146.17 58.45C148.47 58.45 150.43 57.63 152.06 56C153.68 54.36 154.5 52.39 154.5 50.08L154.5 8.37C154.5 7.21 154.29 6.14 153.89 5.15C153.48 4.17 152.87 3.26 152.06 2.45C150.43 0.81 148.47 -0.01 146.17 -0.01ZM61.05 123.44C62.08 124.48 63.33 125 64.79 125L89.16 125C90.63 125 91.88 124.48 92.91 123.44C93.43 122.92 93.81 122.34 94.07 121.71C94.33 121.09 94.46 120.4 94.46 119.67L94.46 112.04C94.46 111.41 94.24 110.88 93.8 110.43C93.35 109.98 92.82 109.76 92.19 109.76L61.77 109.76C61.14 109.76 60.6 109.98 60.16 110.43C59.72 110.88 59.5 111.41 59.5 112.04L59.5 119.67C59.5 120.4 59.62 121.09 59.88 121.71C60.14 122.34 60.53 122.92 61.05 123.44ZM89.16 120.43L64.79 120.43C64.58 120.43 64.41 120.36 64.26 120.21C64.11 120.06 64.04 119.88 64.04 119.67L64.04 114.33L89.92 114.33L89.92 119.67C89.92 120.18 89.67 120.43 89.16 120.43Z" fill="#67C9D3" fill-opacity="1.000000" fill-rule="evenodd"/>
	<path id="Vector 1" d="M39.56 47.1C39.27 47.14 38.99 47.2 38.71 47.28C38.4 47.36 38.14 47.49 37.9 47.67C37.67 47.84 37.48 48.07 37.32 48.34C37.16 48.62 37.06 48.9 37.03 49.19C36.99 49.48 37.01 49.77 37.09 50.08C37.17 50.38 37.3 50.65 37.48 50.88C37.66 51.11 37.88 51.31 38.15 51.47C38.43 51.62 38.71 51.72 39 51.76C39.29 51.8 39.58 51.78 39.89 51.7C39.98 51.67 40.07 51.65 40.16 51.63C40.39 51.59 40.63 51.57 40.88 51.57L43.98 51.57C44.61 51.57 45.15 51.34 45.6 50.9C46.04 50.45 46.27 49.91 46.27 49.28C46.27 48.65 46.04 48.11 45.6 47.66C45.15 47.22 44.61 46.99 43.98 46.99L40.88 46.99C40.43 46.99 39.99 47.03 39.56 47.1ZM62.6 46.99L56.39 46.99C56.08 46.99 55.78 47.05 55.51 47.16C55.25 47.27 55 47.44 54.78 47.66C54.33 48.11 54.11 48.65 54.11 49.28C54.11 49.91 54.33 50.45 54.78 50.9C55 51.12 55.25 51.29 55.51 51.4C55.78 51.51 56.08 51.57 56.39 51.57L62.6 51.57C63.23 51.57 63.77 51.34 64.21 50.9C64.66 50.45 64.88 49.91 64.88 49.28C64.88 48.65 64.66 48.11 64.21 47.66C63.77 47.22 63.23 46.99 62.6 46.99ZM78.11 46.99L75.01 46.99C74.38 46.99 73.84 47.22 73.39 47.66C73.17 47.89 73 48.13 72.89 48.4C72.78 48.67 72.72 48.97 72.72 49.28C72.72 49.6 72.78 49.89 72.89 50.16C73 50.43 73.17 50.67 73.39 50.9C73.84 51.34 74.38 51.57 75.01 51.57L78.11 51.57C78.36 51.57 78.6 51.59 78.83 51.63C78.92 51.65 79.01 51.67 79.1 51.7C79.71 51.86 80.29 51.78 80.84 51.47C81.11 51.31 81.33 51.11 81.51 50.88C81.69 50.65 81.82 50.38 81.9 50.08C81.98 49.77 82 49.48 81.96 49.19C81.93 48.9 81.83 48.62 81.67 48.34C81.51 48.07 81.32 47.84 81.09 47.67C80.85 47.49 80.59 47.36 80.28 47.28C79.57 47.09 78.85 46.99 78.11 46.99ZM86.49 55.38C86.49 54.64 86.4 53.92 86.21 53.21C86.13 52.9 86 52.64 85.82 52.4C85.65 52.17 85.42 51.98 85.15 51.82C84.6 51.5 84.02 51.43 83.41 51.59C82.8 51.75 82.34 52.11 82.02 52.65C81.71 53.2 81.63 53.78 81.79 54.39C81.88 54.71 81.92 55.04 81.92 55.38L81.92 58.48C81.92 59.11 82.15 59.65 82.59 60.1C83.04 60.54 83.58 60.77 84.21 60.77C84.84 60.77 85.38 60.54 85.83 60.1C86.05 59.87 86.22 59.63 86.33 59.36C86.44 59.09 86.49 58.8 86.49 58.48L86.49 55.38ZM32.49 55.38L32.49 58.48C32.49 59.11 32.72 59.65 33.16 60.1C33.39 60.32 33.63 60.49 33.9 60.6C34.17 60.71 34.47 60.77 34.78 60.77C35.41 60.77 35.95 60.54 36.4 60.1C36.84 59.65 37.07 59.11 37.07 58.48L37.07 55.38C37.07 55.04 37.11 54.71 37.2 54.39C37.28 54.08 37.3 53.79 37.26 53.5C37.22 53.21 37.12 52.93 36.97 52.65C36.81 52.38 36.61 52.16 36.38 51.98C36.15 51.8 35.88 51.67 35.58 51.59C35.27 51.51 34.98 51.49 34.69 51.53C34.4 51.56 34.12 51.66 33.84 51.82C33.57 51.98 33.34 52.17 33.17 52.4C32.99 52.64 32.86 52.9 32.78 53.21C32.7 53.49 32.64 53.77 32.6 54.06C32.53 54.49 32.49 54.93 32.49 55.38ZM86.49 77.1L86.49 70.89C86.49 70.58 86.44 70.28 86.33 70.01C86.22 69.74 86.05 69.5 85.83 69.28C85.6 69.05 85.36 68.88 85.09 68.77C84.82 68.66 84.52 68.61 84.21 68.61C83.58 68.61 83.04 68.83 82.59 69.28C82.15 69.72 81.92 70.26 81.92 70.89L81.92 77.1C81.92 77.73 82.15 78.27 82.59 78.71C83.04 79.16 83.58 79.38 84.21 79.38C84.84 79.38 85.38 79.16 85.83 78.71C86.27 78.27 86.49 77.73 86.49 77.1ZM32.49 70.89L32.49 77.1C32.49 77.73 32.72 78.27 33.16 78.71C33.61 79.16 34.15 79.38 34.78 79.38C35.41 79.38 35.95 79.16 36.4 78.71C36.84 78.27 37.07 77.73 37.07 77.1L37.07 70.89C37.07 70.58 37.01 70.28 36.9 70.01C36.79 69.74 36.62 69.5 36.4 69.28C36.17 69.05 35.93 68.88 35.66 68.77C35.39 68.66 35.1 68.61 34.78 68.61C34.47 68.61 34.17 68.66 33.9 68.77C33.63 68.88 33.39 69.05 33.16 69.28C32.94 69.5 32.77 69.74 32.66 70.01C32.55 70.28 32.49 70.58 32.49 70.89ZM86.49 92.61L86.49 89.51C86.49 88.88 86.27 88.34 85.83 87.89C85.6 87.67 85.36 87.5 85.09 87.39C84.82 87.28 84.52 87.22 84.21 87.22C83.58 87.22 83.04 87.45 82.59 87.89C82.15 88.34 81.92 88.88 81.92 89.51L81.92 92.61C81.92 92.95 81.88 93.28 81.79 93.6C81.63 94.21 81.71 94.79 82.02 95.34C82.34 95.88 82.8 96.24 83.41 96.4C84.02 96.56 84.6 96.49 85.15 96.17C85.69 95.85 86.05 95.39 86.21 94.78C86.4 94.07 86.49 93.35 86.49 92.61ZM32.6 93.93C32.64 94.22 32.7 94.5 32.78 94.78C32.86 95.09 32.99 95.35 33.17 95.59C33.34 95.82 33.57 96.01 33.84 96.17C34.39 96.49 34.97 96.56 35.58 96.4C35.88 96.32 36.15 96.19 36.38 96.01C36.61 95.83 36.81 95.61 36.97 95.34C37.28 94.79 37.36 94.21 37.2 93.6C37.11 93.28 37.07 92.95 37.07 92.61L37.07 89.51C37.07 88.88 36.84 88.34 36.4 87.89C36.17 87.67 35.93 87.5 35.66 87.39C35.39 87.28 35.1 87.22 34.78 87.22C34.47 87.22 34.17 87.28 33.9 87.39C33.63 87.5 33.39 87.67 33.16 87.89C32.72 88.34 32.49 88.88 32.49 89.51L32.49 92.61C32.49 93.06 32.53 93.5 32.6 93.93ZM78.11 101C78.85 101 79.57 100.9 80.28 100.71C80.89 100.55 81.35 100.19 81.67 99.65C81.99 99.1 82.06 98.52 81.9 97.91C81.74 97.3 81.38 96.84 80.84 96.52C80.29 96.21 79.71 96.13 79.1 96.29C78.78 96.38 78.45 96.42 78.11 96.42L75.01 96.42C74.38 96.42 73.84 96.65 73.39 97.09C72.95 97.54 72.72 98.08 72.72 98.71C72.72 99.02 72.78 99.32 72.89 99.59C73 99.86 73.17 100.1 73.39 100.33C73.84 100.77 74.38 101 75.01 101L78.11 101ZM40.88 101L43.98 101C44.61 101 45.15 100.77 45.6 100.33C46.04 99.88 46.27 99.34 46.27 98.71C46.27 98.08 46.04 97.54 45.6 97.09C45.15 96.65 44.61 96.42 43.98 96.42L40.88 96.42C40.54 96.42 40.21 96.38 39.89 96.29C39.28 96.13 38.7 96.21 38.15 96.52C37.61 96.84 37.25 97.3 37.09 97.91C36.93 98.52 37 99.1 37.32 99.65C37.64 100.19 38.1 100.55 38.71 100.71C39.42 100.9 40.14 101 40.88 101ZM56.39 101L62.6 101C63.23 101 63.77 100.77 64.21 100.33C64.66 99.88 64.88 99.34 64.88 98.71C64.88 98.08 64.66 97.54 64.21 97.09C63.77 96.65 63.23 96.42 62.6 96.42L56.39 96.42C55.76 96.42 55.22 96.65 54.78 97.09C54.33 97.54 54.11 98.08 54.11 98.71C54.11 99.34 54.33 99.88 54.78 100.33C55 100.55 55.25 100.72 55.51 100.83C55.78 100.94 56.08 101 56.39 101Z" fill="#67C9D3" fill-opacity="1.000000" fill-rule="evenodd"/>
	<path id="Vector 2 (Border)" d="M109.65 14.99L141.22 14.99C142.5 14.99 143.5 15.99 143.5 17.26C143.5 18.53 142.5 19.53 141.22 19.53L109.65 19.53C108.37 19.53 107.37 18.53 107.37 17.26C107.37 15.99 108.37 14.99 109.65 14.99ZM109.65 26.9L141.22 26.9C142.5 26.9 143.5 27.9 143.5 29.17C143.5 30.44 142.5 31.44 141.22 31.44L109.65 31.44C108.37 31.44 107.37 30.44 107.37 29.17C107.37 27.9 108.37 26.9 109.65 26.9ZM109.65 38.81L141.22 38.81C142.5 38.81 143.5 39.81 143.5 41.08C143.5 42.35 142.5 43.34 141.22 43.34L109.65 43.34C108.37 43.34 107.37 42.35 107.37 41.08C107.37 39.81 108.37 38.81 109.65 38.81ZM107.2 53.07L98.22 67.93C97.88 68.49 97.66 69.06 97.55 69.66C97.47 70.11 97.45 70.58 97.5 71.06C97.55 71.52 97.66 71.95 97.82 72.37C98.02 72.87 98.3 73.34 98.66 73.77C99.03 74.21 99.44 74.57 99.9 74.85C100.28 75.09 100.69 75.27 101.13 75.4C101.6 75.53 102.06 75.6 102.53 75.6C103.13 75.6 103.74 75.49 104.35 75.26L111.02 72.74C111.08 72.72 111.15 72.71 111.21 72.71C111.28 72.71 111.34 72.72 111.4 72.75L117.98 75.52C118.58 75.77 119.18 75.91 119.78 75.93C120.25 75.94 120.71 75.89 121.18 75.77C121.63 75.66 122.05 75.49 122.44 75.27C122.91 75.01 123.33 74.66 123.71 74.24C124.09 73.82 124.39 73.36 124.61 72.87C124.78 72.46 124.91 72.03 124.97 71.57C125.04 71.1 125.04 70.63 124.98 70.17C124.89 69.57 124.69 68.99 124.38 68.42L115.97 53.24C115.49 52.39 114.9 51.74 114.17 51.31C113.45 50.87 112.6 50.65 111.63 50.63C110.65 50.61 109.8 50.81 109.06 51.21C108.32 51.62 107.7 52.24 107.2 53.07ZM102.03 70.58C102.02 70.48 102.05 70.38 102.11 70.27L111.09 55.41C111.14 55.33 111.2 55.26 111.28 55.22C111.36 55.18 111.44 55.16 111.54 55.16C111.64 55.16 111.73 55.19 111.8 55.23C111.88 55.28 111.94 55.34 111.99 55.43L120.4 70.62C120.46 70.72 120.48 70.83 120.47 70.92C120.46 71.02 120.41 71.12 120.33 71.21C120.25 71.3 120.16 71.36 120.06 71.38C119.96 71.4 119.86 71.39 119.75 71.34L113.17 68.57C112.55 68.31 111.93 68.17 111.3 68.16C110.67 68.15 110.04 68.26 109.41 68.5L102.74 71.02C102.62 71.06 102.52 71.07 102.42 71.05C102.32 71.02 102.23 70.96 102.15 70.87C102.08 70.78 102.03 70.68 102.03 70.58ZM61.37 65.85C61.37 64.58 60.37 63.59 59.1 63.59C57.82 63.59 56.82 64.58 56.82 65.85L56.82 71.89L50.77 71.89C49.5 71.89 48.5 72.89 48.5 74.16C48.5 75.43 49.5 76.42 50.77 76.42L56.82 76.42L56.82 82.46C56.82 83.73 57.82 84.73 59.1 84.73C60.37 84.73 61.37 83.73 61.37 82.46L61.37 76.42L67.42 76.42C68.7 76.42 69.7 75.43 69.7 74.16C69.7 72.89 68.7 71.89 67.42 71.89L61.37 71.89L61.37 65.85ZM113.52 85.23C113.52 83.96 112.52 82.97 111.25 82.97C109.98 82.97 108.98 83.96 108.98 85.23L108.98 88.78C108.98 89.22 108.9 89.62 108.75 89.99C108.59 90.36 108.36 90.7 108.05 91.01C107.74 91.31 107.4 91.54 107.03 91.7C106.66 91.85 106.26 91.93 105.82 91.93L102.97 91.93L103.63 91.27C104.53 90.38 104.53 88.97 103.63 88.07C102.73 87.17 101.31 87.17 100.41 88.07L95.87 92.59C95.43 93.03 95.21 93.57 95.21 94.19C95.21 94.82 95.43 95.35 95.87 95.8L100.41 100.32C101.31 101.22 102.73 101.22 103.63 100.32C104.53 99.42 104.53 98.01 103.63 97.12L102.97 96.46L105.82 96.46C106.88 96.46 107.87 96.27 108.78 95.9C109.69 95.52 110.52 94.96 111.27 94.21C112.02 93.46 112.58 92.63 112.96 91.73C113.33 90.82 113.52 89.84 113.52 88.78L113.52 85.23Z" fill="#67C9D3" fill-opacity="1.000000" fill-rule="evenodd"/>
</svg>
