<svg width="104.000000" height="104.000000" viewBox="0 0 104 104" fill="none" xmlns="http://www.w3.org/2000/svg" xmlns:xlink="http://www.w3.org/1999/xlink">
	<desc>
			Created with Pixso.
	</desc>
	<defs>
		<clipPath id="clip30_4566">
			<rect id="svg" width="104.000000" height="104.000000" transform="translate(0.000000 -0.500000)" fill="white" fill-opacity="0"/>
		</clipPath>
	</defs>
	<g clip-path="url(#clip30_4566)">
		<path id="path" d="M93.98 70.61L62.02 70.61C61.15 70.61 60.45 69.91 60.45 69.04C60.45 68.17 61.15 67.47 62.02 67.47L93.98 67.47C94.3 67.47 94.57 67.2 94.57 66.88L94.57 9.76C94.57 9.44 94.3 9.17 93.98 9.17L10.12 9.17C9.8 9.17 9.53 9.44 9.53 9.76L9.53 66.88C9.53 67.2 9.8 67.47 10.12 67.47L42.08 67.47C42.94 67.47 43.64 68.18 43.64 69.04C43.64 69.91 42.94 70.61 42.08 70.61L10.12 70.61C8.06 70.61 6.39 68.94 6.39 66.88L6.39 9.76C6.39 7.7 8.06 6.03 10.12 6.03L93.98 6.03C96.04 6.03 97.71 7.7 97.71 9.76L97.71 66.88C97.71 68.94 96.04 70.61 93.98 70.61Z" fill="#67C9D3" fill-opacity="1.000000" fill-rule="evenodd"/>
		<path id="path" d="M82.28 62.86L64.42 62.86C63.55 62.86 62.85 62.16 62.85 61.3C62.85 60.43 63.55 59.73 64.42 59.73L80.87 59.73C81.5 56.54 84.02 54.02 87.2 53.39L87.2 23.24C84.02 22.61 81.5 20.1 80.87 16.91L23.23 16.91C22.6 20.1 20.09 22.61 16.9 23.24L16.9 53.4C20.09 54.03 22.6 56.54 23.23 59.73L39.68 59.73C40.55 59.73 41.25 60.43 41.25 61.3C41.25 62.16 40.55 62.87 39.68 62.87L21.82 62.87C20.95 62.87 20.25 62.17 20.25 61.3C20.25 58.59 18.04 56.38 15.33 56.38C14.47 56.38 13.76 55.68 13.76 54.81L13.76 21.83C13.76 20.96 14.46 20.26 15.33 20.26C18.04 20.26 20.25 18.05 20.25 15.34C20.25 14.48 20.95 13.77 21.82 13.77L82.28 13.77C83.15 13.77 83.85 14.47 83.85 15.34C83.85 18.05 86.06 20.26 88.77 20.26C89.63 20.26 90.34 20.96 90.34 21.83L90.34 54.81C90.34 55.68 89.64 56.38 88.77 56.38C86.06 56.38 83.85 58.59 83.85 61.3C83.85 62.16 83.15 62.86 82.28 62.86Z" fill="#67C9D3" fill-opacity="1.000000" fill-rule="evenodd"/>
		<path id="path" d="M52.05 79.23C51.58 79.23 51.14 79.02 50.84 78.66L47.65 74.82L42.82 76.05C41.86 76.3 40.93 75.61 40.87 74.64L40.55 69.65L35.91 67.81C35 67.45 34.64 66.34 35.16 65.52L37.83 61.3L35.17 57.08C34.64 56.25 35 55.15 35.91 54.78L40.55 52.94L40.87 47.96C40.93 46.98 41.87 46.3 42.82 46.54L47.66 47.78L50.84 43.94C51.14 43.58 51.58 43.37 52.05 43.37C52.52 43.37 52.96 43.57 53.25 43.93L56.44 47.78L61.28 46.54C62.23 46.3 63.17 46.98 63.23 47.96L63.55 52.95L68.19 54.79C69.1 55.15 69.46 56.25 68.93 57.08L66.26 61.3L68.93 65.52C69.46 66.35 69.09 67.45 68.18 67.81L63.54 69.66L63.22 74.64C63.16 75.61 62.23 76.3 61.27 76.06L56.43 74.82L53.25 78.66C52.96 79.02 52.52 79.23 52.05 79.23ZM49.43 72.05L52.05 75.21L54.66 72.06C55.05 71.59 55.67 71.39 56.26 71.54L60.23 72.55L60.49 68.47C60.53 67.86 60.91 67.34 61.47 67.11L65.28 65.6L63.09 62.14C62.77 61.63 62.77 60.97 63.09 60.46L65.28 57L61.48 55.49C60.91 55.27 60.53 54.74 60.49 54.13L60.23 50.05L56.26 51.06C55.68 51.21 55.06 51.01 54.67 50.54L52.05 47.39L49.44 50.54C49.05 51.01 48.43 51.21 47.85 51.06L43.88 50.04L43.61 54.13C43.57 54.73 43.19 55.26 42.63 55.48L38.82 57L41.01 60.46C41.34 60.97 41.34 61.62 41.01 62.13L38.82 65.6L42.63 67.11C43.19 67.33 43.57 67.86 43.61 68.46L43.88 72.55L47.84 71.54C48.38 71.39 49.03 71.57 49.43 72.05Z" fill="#67C9D3" fill-opacity="1.000000" fill-rule="evenodd"/>
		<path id="path" d="M52.05 68.8C47.91 68.8 44.54 65.43 44.54 61.3C44.54 57.16 47.91 53.79 52.05 53.79C56.19 53.79 59.55 57.16 59.55 61.3C59.55 65.44 56.19 68.8 52.05 68.8ZM52.05 56.93C49.64 56.93 47.68 58.89 47.68 61.3C47.68 63.71 49.64 65.67 52.05 65.67C54.46 65.67 56.42 63.71 56.42 61.3C56.42 58.89 54.46 56.93 52.05 56.93ZM38.31 97.23C37.64 97.07 37.15 96.5 37.1 95.81L36.73 90.5L31.85 92.8C31.23 93.1 30.49 92.95 30.03 92.45C29.56 91.94 29.48 91.19 29.82 90.6L40.92 71.38C41.35 70.63 42.31 70.37 43.06 70.8C43.81 71.24 44.07 72.2 43.64 72.94L35.04 87.83L37.47 86.68C38.46 86.22 39.62 86.89 39.7 87.99L39.87 90.48L48.94 74.77C49.37 74.02 50.33 73.76 51.08 74.2C51.83 74.63 52.09 75.59 51.65 76.34L40.02 96.49C39.68 97.08 38.99 97.39 38.31 97.23ZM64.08 96.49L52.44 76.33C52.01 75.58 52.27 74.62 53.02 74.19C53.77 73.76 54.73 74.01 55.16 74.77L64.23 90.47L64.4 87.99C64.48 86.89 65.64 86.21 66.63 86.68L69.06 87.83L60.46 72.94C60.03 72.19 60.29 71.23 61.04 70.8C61.79 70.37 62.75 70.62 63.18 71.38L74.28 90.6C74.62 91.2 74.54 91.94 74.08 92.45C73.61 92.95 72.87 93.1 72.25 92.81L67.37 90.5L67 95.81C66.95 96.5 66.46 97.07 65.79 97.23C65.14 97.38 64.43 97.1 64.08 96.49ZM74.04 24.14L30.06 24.14C29.19 24.14 28.49 23.44 28.49 22.57C28.49 21.7 29.19 21 30.06 21L74.05 21C74.91 21 75.61 21.7 75.61 22.57C75.61 23.43 74.91 24.14 74.04 24.14ZM80.36 31.23L23.74 31.23C22.87 31.23 22.17 30.53 22.17 29.67C22.17 28.8 22.87 28.1 23.74 28.1L80.36 28.1C81.23 28.1 81.93 28.8 81.93 29.67C81.93 30.53 81.23 31.23 80.36 31.23ZM63.78 38.33L40.33 38.33C39.46 38.33 38.76 37.63 38.76 36.76C38.76 35.9 39.46 35.2 40.33 35.2L63.78 35.2C64.64 35.2 65.34 35.9 65.34 36.76C65.34 37.63 64.64 38.33 63.78 38.33ZM69.64 53.75C68.78 53.75 68.07 53.05 68.07 52.19L68.07 42.6C68.07 41.96 68.46 41.39 69.05 41.15C69.64 40.91 70.31 41.05 70.76 41.5C71.21 41.96 74.07 45.29 74.3 45.57C74.3 44.98 74.3 44.49 74.28 44.31C74.18 42.94 75.76 42.1 76.83 42.96C78.11 43.99 78.24 44.04 79.35 44.34C80.34 42.77 81.01 42.52 82.44 41.26C83.09 40.69 84.08 40.75 84.65 41.4C85.23 42.05 85.16 43.04 84.51 43.62C82.64 45.27 82.56 44.91 81.48 46.92C81.13 47.58 80.36 47.89 79.65 47.68C78.62 47.38 78.03 47.25 77.44 47.03C77.44 47.38 77.43 49.32 77.44 49.67C77.54 50.41 77.1 51.12 76.37 51.36C75.7 51.58 74.99 51.32 74.61 50.78C74.33 50.43 72.72 48.53 71.22 46.78L71.22 52.19C71.21 53.05 70.51 53.75 69.64 53.75ZM74.42 50.41C74.44 50.48 74.48 50.55 74.51 50.62C74.48 50.56 74.45 50.49 74.42 50.41Z" fill="#67C9D3" fill-opacity="1.000000" fill-rule="evenodd"/>
	</g>
</svg>
