<svg width="147.000000" height="41.000000" viewBox="0 0 147 41" fill="none" xmlns="http://www.w3.org/2000/svg" xmlns:xlink="http://www.w3.org/1999/xlink">
	<desc>
			Created with Pixso.
	</desc>
	<defs>
		<clipPath id="clip108_253">
			<rect id="logo" width="147.000000" height="41.000000" fill="white" fill-opacity="0"/>
		</clipPath>
		<linearGradient id="paint_linear_108_249_0" x1="0.000000" y1="27.706322" x2="31.864355" y2="27.706322" gradientUnits="userSpaceOnUse">
			<stop stop-color="#C7EAFB"/>
			<stop offset="1.000000" stop-color="#8ED8F8"/>
		</linearGradient>
		<linearGradient id="paint_linear_108_250_0" x1="10.885744" y1="15.785805" x2="33.832367" y2="15.785805" gradientUnits="userSpaceOnUse">
			<stop stop-color="#C7EAFB"/>
			<stop offset="1.000000" stop-color="#8ED8F8"/>
		</linearGradient>
		<linearGradient id="paint_linear_108_251_0" x1="10.885744" y1="33.606483" x2="33.832367" y2="33.606483" gradientUnits="userSpaceOnUse">
			<stop stop-color="#C7EAFB"/>
			<stop offset="1.000000" stop-color="#8ED8F8"/>
		</linearGradient>
	</defs>
	<g clip-path="url(#clip108_253)">
		<path id="path" d="M0 16.8C0 20.98 1.54 24.78 4.07 27.72C10.7 21.22 24.71 18.05 31.91 16.8C24.71 15.56 10.7 12.39 4.07 5.89C1.54 8.83 0 12.64 0 16.8Z" fill="url(#paint_linear_108_249_0)" fill-opacity="1.000000" fill-rule="evenodd"/>
		<path id="path" d="M16.95 0C14.81 0 12.77 0.4 10.88 1.12C12.41 3.02 20.65 12.54 33.87 15.79C33.33 6.98 25.98 0 16.95 0Z" fill="url(#paint_linear_108_250_0)" fill-opacity="1.000000" fill-rule="evenodd"/>
		<path id="path" d="M10.88 32.49C12.77 33.2 14.81 33.61 16.95 33.61C25.98 33.61 33.33 26.63 33.87 17.82C20.65 21.07 12.41 30.59 10.88 32.49Z" fill="url(#paint_linear_108_251_0)" fill-opacity="1.000000" fill-rule="evenodd"/>
		<path id="path" d="M143.6 2.81C142.01 2.81 140.72 4.09 140.72 5.67C140.72 7.24 142.01 8.52 143.6 8.52C145.19 8.52 146.48 7.24 146.48 5.67C146.48 4.09 145.19 2.81 143.6 2.81ZM126.5 10.42L130.17 10.42L130.61 12.34L130.83 12.34C131.56 11.53 132.25 10.42 134.93 10.42L138.82 10.42L138.82 14.27L135.36 14.27C132.34 14.27 130.83 15.77 130.83 18.72L130.83 31.83L126.5 31.83L126.5 10.42ZM119.64 21.12C119.64 16.67 116.83 13.84 113.16 13.84C109.49 13.84 106.68 16.67 106.68 21.12C106.68 25.58 109.49 28.41 113.16 28.41C116.83 28.41 119.64 25.58 119.64 21.12ZM102.36 21.12C102.36 14.48 106.89 9.99 113.16 9.99C119.43 9.99 123.97 14.48 123.97 21.12C123.97 27.76 119.43 32.26 113.16 32.26C106.89 32.26 102.36 27.76 102.36 21.12ZM83.26 36.54L87.58 36.54C88.45 36.54 88.93 35.73 89.06 35.26L89.75 33.33L80.89 10.42L85.43 10.42L91.69 26.69L92.55 26.69L98.17 10.42L102.71 10.42L93.2 36.76C92.34 39.11 91.04 40.4 87.8 40.4L83.26 40.4L83.26 36.54ZM62.45 1.85L66.77 1.85L66.77 20.27L75.85 10.42L81.03 10.42L71.31 20.91L81.47 31.83L76.28 31.83L66.77 21.55L66.77 31.83L62.45 31.83L62.45 1.85ZM41.32 22.62C41.32 25.41 44.17 27.98 48.67 27.98C53.64 27.98 55.58 26.05 55.58 23.48C55.58 21.3 53.85 19.84 50.4 19.2L44.56 18.12C39.76 17.27 37.43 14.31 37.43 10.2C37.43 5.27 41.53 1.42 48.24 1.42C55.8 1.42 59.69 5.7 59.69 11.06L55.15 11.06C55.15 8.27 52.56 5.7 48.24 5.7C44.13 5.7 41.97 7.8 41.97 10.2C41.97 12.13 43.22 13.63 46.5 14.27L51.26 15.13C57.35 16.2 60.12 18.72 60.12 23.48C60.12 28.41 56.23 32.26 48.67 32.26C41.1 32.26 36.78 27.98 36.78 22.62L41.32 22.62ZM141.44 31.83L145.76 31.83L145.76 10.42L141.44 10.42L141.44 31.83Z" fill="#FFFFFF" fill-opacity="1.000000" fill-rule="evenodd"/>
	</g>
</svg>
