<svg width="291.000000" height="56.000000" viewBox="0 0 291 56" fill="none" xmlns="http://www.w3.org/2000/svg" xmlns:xlink="http://www.w3.org/1999/xlink">
	<desc>
			Created with Pixso.
	</desc>
	<defs>
		<clipPath id="clip34_1179">
			<rect id="logo" width="291.000000" height="56.000000" fill="white" fill-opacity="0"/>
		</clipPath>
		<linearGradient id="paint_linear_34_1174_0" x1="2.000000" y1="38.842827" x2="45.136097" y2="38.842827" gradientUnits="userSpaceOnUse">
			<stop stop-color="#C7EAFB"/>
			<stop offset="1.000000" stop-color="#8ED8F8"/>
		</linearGradient>
		<linearGradient id="paint_linear_34_1175_0" x1="16.736574" y1="22.561100" x2="47.800373" y2="22.561100" gradientUnits="userSpaceOnUse">
			<stop stop-color="#C7EAFB"/>
			<stop offset="1.000000" stop-color="#8ED8F8"/>
		</linearGradient>
		<linearGradient id="paint_linear_34_1176_0" x1="16.736574" y1="46.901493" x2="47.800373" y2="46.901493" gradientUnits="userSpaceOnUse">
			<stop stop-color="#C7EAFB"/>
			<stop offset="1.000000" stop-color="#8ED8F8"/>
		</linearGradient>
	</defs>
	<g clip-path="url(#clip34_1179)">
		<path id="path" d="M2 23.95C2 29.65 4.08 34.85 7.51 38.86C16.49 29.99 35.45 25.66 45.2 23.95C35.45 22.25 16.49 17.92 7.51 9.05C4.08 13.06 2 18.26 2 23.95Z" fill="url(#paint_linear_34_1174_0)" fill-opacity="1.000000" fill-rule="evenodd"/>
		<path id="path" d="M24.95 1C22.05 1 19.29 1.55 16.73 2.54C18.8 5.13 29.96 18.13 47.85 22.57C47.13 10.54 37.17 1 24.95 1Z" fill="url(#paint_linear_34_1175_0)" fill-opacity="1.000000" fill-rule="evenodd"/>
		<path id="path" d="M16.73 45.37C19.29 46.35 22.05 46.91 24.95 46.91C37.17 46.91 47.13 37.37 47.85 25.34C29.96 29.78 18.8 42.78 16.73 45.37Z" fill="url(#paint_linear_34_1176_0)" fill-opacity="1.000000" fill-rule="evenodd"/>
		<path id="path" d="M196.4 4.84C194.25 4.84 192.5 6.59 192.5 8.74C192.5 10.9 194.25 12.64 196.4 12.64C198.55 12.64 200.3 10.9 200.3 8.74C200.3 6.59 198.55 4.84 196.4 4.84ZM173.25 15.23L178.23 15.23L178.81 17.86L179.11 17.86C180.1 16.75 181.04 15.23 184.66 15.23L189.93 15.23L189.93 20.49L185.25 20.49C181.15 20.49 179.11 22.54 179.11 26.58L179.11 44.48L173.25 44.48L173.25 15.23ZM163.97 29.85C163.97 23.77 160.17 19.91 155.19 19.91C150.22 19.91 146.42 23.77 146.42 29.85C146.42 35.94 150.22 39.8 155.19 39.8C160.17 39.8 163.97 35.94 163.97 29.85ZM140.57 29.85C140.57 20.79 146.71 14.64 155.19 14.64C163.67 14.64 169.82 20.79 169.82 29.85C169.82 38.92 163.67 45.06 155.19 45.06C146.71 45.06 140.57 38.92 140.57 29.85ZM114.72 50.91L120.57 50.91C121.74 50.91 122.39 49.8 122.56 49.16L123.5 46.53L111.5 15.23L117.65 15.23L126.13 37.46L127.3 37.46L134.9 15.23L141.05 15.23L128.18 51.21C127.01 54.43 125.25 56.18 120.86 56.18L114.72 56.18L114.72 50.91ZM86.54 3.52L92.4 3.52L92.4 28.68L104.68 15.23L111.7 15.23L98.54 29.56L112.29 44.48L105.27 44.48L92.4 30.44L92.4 44.48L86.54 44.48L86.54 3.52ZM57.94 31.9C57.94 35.71 61.8 39.21 67.88 39.21C74.61 39.21 77.25 36.58 77.25 33.07C77.25 30.09 74.9 28.1 70.23 27.22L62.33 25.76C55.83 24.59 52.67 20.55 52.67 14.94C52.67 8.21 58.23 2.94 67.3 2.94C77.54 2.94 82.8 8.79 82.8 16.1L76.66 16.1C76.66 12.3 73.15 8.79 67.3 8.79C61.74 8.79 58.82 11.66 58.82 14.94C58.82 17.57 60.51 19.62 64.96 20.49L71.39 21.66C79.64 23.12 83.39 26.58 83.39 33.07C83.39 39.8 78.12 45.06 67.88 45.06C57.64 45.06 51.8 39.21 51.8 31.9L57.94 31.9ZM193.48 44.48L199.33 44.48L199.33 15.23L193.48 15.23L193.48 44.48Z" fill="#263148" fill-opacity="1.000000" fill-rule="evenodd"/>
		<path id="GIS" d="M237.63 44.38L237.04 39.07L236.75 39.07C235.92 40.09 234.86 41.08 233.55 42.02Q232.3 42.9 230.92 43.51Q227.67 44.97 223.76 44.97Q219.52 44.97 215.95 43.43Q212.52 41.94 209.71 39.02Q208.06 37.3 206.89 35.3Q204 30.37 204 23.74Q204 17.06 206.92 12.12Q208.09 10.15 209.71 8.46Q212.54 5.52 215.98 4.03Q219.54 2.5 223.76 2.5Q229.26 2.5 233.4 4.86Q234.78 5.64 236 6.69Q239.49 9.64 241.22 13.4Q241.94 14.96 242.35 16.65L235.86 16.65Q234.72 13.71 232.65 11.77L232.65 11.77Q231.93 11.1 231.1 10.55Q230.11 9.88 229.03 9.42L229.03 9.42Q226.61 8.39 223.76 8.39Q220.49 8.39 217.86 9.67Q215.74 10.71 214.02 12.58Q213.5 13.14 213.06 13.76Q210.19 17.71 210.19 23.74Q210.19 29.74 213.03 33.68Q213.49 34.31 214.02 34.89Q215.72 36.74 217.83 37.77Q220.48 39.07 223.76 39.07Q226.66 39.07 229.1 38.02Q231.05 37.18 232.7 35.68C235.2 33.42 236.45 30.91 236.45 28.16L236.45 27.86L224.94 27.86L224.94 22.85L242.64 22.85L242.64 44.38L237.63 44.38ZM264.08 31.69L257.89 31.69Q257.89 34.51 258.94 36.85Q260.03 39.28 262.25 41.2C265.16 43.72 269.11 44.97 274.11 44.97C279.1 44.97 282.96 43.84 285.67 41.59Q287.7 39.9 288.72 37.73Q289.75 35.54 289.75 32.87C289.75 29.61 288.78 27.06 286.82 25.24C284.88 23.41 281.82 22.12 277.65 21.38L271.15 20.2Q266.72 19.31 265.46 16.82Q264.96 15.83 264.96 14.59C264.96 12.86 265.72 11.39 267.24 10.19C268.75 8.99 270.85 8.39 273.52 8.39Q277.48 8.39 280.01 10.3Q280.19 10.43 280.36 10.58C282.1 12.04 282.97 13.76 282.97 15.76L289.16 15.76Q289.16 12.53 287.88 9.94Q286.86 7.89 285.05 6.24Q284.99 6.19 284.93 6.13Q280.84 2.5 273.52 2.5Q267.16 2.5 263.22 5.58Q262.99 5.76 262.77 5.95Q260.68 7.75 259.68 10.03Q258.77 12.11 258.77 14.59C258.77 17.5 259.58 19.91 261.21 21.8C262.85 23.68 265.28 24.91 268.5 25.5L276.47 26.98C281.19 27.89 283.56 29.85 283.56 32.87C283.56 34.77 282.79 36.27 281.25 37.4C279.71 38.51 277.33 39.07 274.11 39.07C271.16 39.07 268.75 38.34 266.88 36.89C265.01 35.43 264.08 33.7 264.08 31.69ZM247.9 44.38L247.9 3.09L254.1 3.09L254.1 44.38L247.9 44.38Z" fill="#263148" fill-opacity="1.000000" fill-rule="evenodd"/>
	</g>
</svg>
