<svg width="309.000000" height="87.000000" viewBox="0 0 309 87" fill="none" xmlns="http://www.w3.org/2000/svg" xmlns:xlink="http://www.w3.org/1999/xlink">
	<desc>
			Created with Pixso.
	</desc>
	<defs>
		<clipPath id="clip34_274">
			<rect id="logo" width="309.000000" height="87.000000" fill="white" fill-opacity="0"/>
		</clipPath>
		<linearGradient id="paint_linear_34_275_0" x1="0.000000" y1="58.791054" x2="66.980179" y2="58.791054" gradientUnits="userSpaceOnUse">
			<stop stop-color="#C7EAFB"/>
			<stop offset="1.000000" stop-color="#8ED8F8"/>
		</linearGradient>
		<linearGradient id="paint_linear_34_276_0" x1="22.882328" y1="33.496708" x2="71.117065" y2="33.496708" gradientUnits="userSpaceOnUse">
			<stop stop-color="#C7EAFB"/>
			<stop offset="1.000000" stop-color="#8ED8F8"/>
		</linearGradient>
		<linearGradient id="paint_linear_34_277_0" x1="22.882328" y1="71.311165" x2="71.117065" y2="71.311165" gradientUnits="userSpaceOnUse">
			<stop stop-color="#C7EAFB"/>
			<stop offset="1.000000" stop-color="#8ED8F8"/>
		</linearGradient>
	</defs>
	<g clip-path="url(#clip34_274)">
		<path id="path" d="M0 35.66C0 44.51 3.23 52.59 8.57 58.82C22.5 45.04 51.94 38.31 67.09 35.66C51.94 33.02 22.5 26.29 8.57 12.5C3.23 18.74 0 26.82 0 35.66Z" fill="url(#paint_linear_34_275_0)" fill-opacity="1.000000" fill-rule="evenodd"/>
		<path id="path" d="M35.65 0C31.14 0 26.85 0.86 22.88 2.39C26.09 6.41 43.41 26.61 71.19 33.52C70.08 14.82 54.61 0 35.65 0Z" fill="url(#paint_linear_34_276_0)" fill-opacity="1.000000" fill-rule="evenodd"/>
		<path id="path" d="M22.88 68.94C26.85 70.46 31.14 71.33 35.65 71.33C54.61 71.33 70.08 56.51 71.19 37.81C43.41 44.72 26.09 64.92 22.88 68.94Z" fill="url(#paint_linear_34_277_0)" fill-opacity="1.000000" fill-rule="evenodd"/>
		<path id="path" d="M301.86 5.97C298.52 5.97 295.8 8.68 295.8 12.03C295.8 15.38 298.52 18.09 301.86 18.09C305.21 18.09 307.92 15.38 307.92 12.03C307.92 8.68 305.21 5.97 301.86 5.97ZM265.92 22.11L273.64 22.11L274.55 26.19L275.01 26.19C276.54 24.47 278 22.11 283.63 22.11L291.81 22.11L291.81 30.28L284.54 30.28C278.18 30.28 275.01 33.47 275.01 39.74L275.01 67.55L265.92 67.55L265.92 22.11ZM251.5 44.83C251.5 35.37 245.6 29.38 237.87 29.38C230.15 29.38 224.25 35.37 224.25 44.83C224.25 54.28 230.15 60.28 237.87 60.28C245.6 60.28 251.5 54.28 251.5 44.83ZM215.16 44.83C215.16 30.74 224.7 21.2 237.87 21.2C251.05 21.2 260.59 30.74 260.59 44.83C260.59 58.92 251.05 68.46 237.87 68.46C224.7 68.46 215.16 58.92 215.16 44.83ZM175.03 77.55L184.11 77.55C185.93 77.55 186.93 75.82 187.21 74.82L188.66 70.73L170.04 22.11L179.57 22.11L192.75 56.64L194.56 56.64L206.37 22.11L215.91 22.11L195.93 78.01C194.11 83 191.38 85.73 184.57 85.73L175.03 85.73L175.03 77.55ZM131.28 3.92L140.37 3.92L140.37 43.01L159.45 22.11L170.34 22.11L149.9 44.37L171.25 67.55L160.35 67.55L140.37 45.74L140.37 67.55L131.28 67.55L131.28 3.92ZM86.86 48.01C86.86 53.92 92.86 59.37 102.31 59.37C112.75 59.37 116.84 55.28 116.84 49.83C116.84 45.19 113.21 42.1 105.94 40.74L93.67 38.46C83.59 36.65 78.69 30.38 78.69 21.65C78.69 11.2 87.31 3.02 101.4 3.02C117.29 3.02 125.47 12.11 125.47 23.47L115.93 23.47C115.93 17.56 110.48 12.11 101.4 12.11C92.77 12.11 88.22 16.56 88.22 21.65C88.22 25.74 90.86 28.92 97.76 30.28L107.76 32.1C120.57 34.37 126.38 39.74 126.38 49.83C126.38 60.28 118.2 68.46 102.31 68.46C86.41 68.46 77.32 59.37 77.32 48.01L86.86 48.01ZM297.32 67.55L306.41 67.55L306.41 22.11L297.32 22.11L297.32 67.55Z" fill="#263148" fill-opacity="1.000000" fill-rule="evenodd"/>
	</g>
</svg>
